# xmcd CD database file generated by RipIT.
#
# Track frame offsets:
#	151
#	13485
#	31616
#	43946
#	62407
#	78375
#	95416
#	116794
#	134959
#	155178
#	174897
#	190398
#	216395
#
# Disc length: 3035 seconds
#
# Revision: 1
# Processed by: cddbd v1.5.1PL2 Copyright (c) Steve Scherf et al.
# Submitted via: RipIT 3.4 www.suwald.com/ripit/ripit.html at Fri Jan 27 08:21:23 CET 2006.
#
DISCID=be0bd90d
DTITLE=Saint Etienne - Tales From Turnpike House
DYEAR=2005
DGENRE=Trip-Hop
TTITLE0=Side Streets
TTITLE1=A Good Thing
TTITLE2=Sun In My Morning
TTITLE3=Milk Bottle Symphony
TTITLE4=Dream Lover
TTITLE5=Lightning Strikes Twice
TTITLE6=Slow Down At The Castle
TTITLE7=Oh My
TTITLE8=Last Orders For Gary Stead
TTITLE9=I'm Falling
TTITLE10=Stars Above Us
TTITLE11=Teenage Winter
TTITLE12=Goodnight
EXTD=ID3G: 27 YEAR: 2005
EXTT0=
EXTT1=
EXTT2=
EXTT3=
EXTT4=
EXTT5=
EXTT6=
EXTT7=
EXTT8=
EXTT9=
EXTT10=
EXTT11=
EXTT12=
PLAYORDER=
